HIERARCHY
ROOT Hips
{
	OFFSET 0.00 0.00 0.00
	CHANNELS 6 Xposition Yposition Zposition Yrotation Xrotation Zrotation
	JOINT LHipJoint
	{
		OFFSET	0.0000	0.0000	0.0000
		CHANNELS 3 Yrotation Xrotation Zrotation
		JOINT LeftUpLeg
		{
			OFFSET	1.0138	-0.0809	-0.0827
			CHANNELS 3 Yrotation Xrotation Zrotation
			JOINT LeftLeg
			{
				OFFSET	0.4110	-3.9095	0.3245
				CHANNELS 3 Yrotation Xrotation Zrotation
				JOINT LeftFoot
				{
					OFFSET	0.3810	-4.0555	-0.1470
					CHANNELS 3 Yrotation Xrotation Zrotation
					JOINT LeftToeBase
					{
						OFFSET	0.1396	-0.4462	1.3079
						CHANNELS 3 Yrotation Xrotation Zrotation
						End Site
						{
							OFFSET 0.0161 -0.0248 0.1809
						}
					}
				}
			}
		}
	}
	JOINT LowerBack
	{
		OFFSET	0.0000	0.7977	-0.3873
		CHANNELS 3 Yrotation Xrotation Zrotation
		JOINT Spine
		{
			OFFSET	0.0000	1.4131	0.1715
			CHANNELS 3 Yrotation Xrotation Zrotation
			JOINT Spine1
			{
				OFFSET	0.0000	1.4392	-0.1032
				CHANNELS 3 Yrotation Xrotation Zrotation
				JOINT LeftShoulder
				{
					OFFSET	0.2274	1.0382	0.4032
					CHANNELS 3 Yrotation Xrotation Zrotation
					JOINT LeftArm
					{
						OFFSET	1.4730	-0.2267	-0.0231
						CHANNELS 3 Yrotation Xrotation Zrotation
						JOINT LeftForeArm
						{
							OFFSET	1.6131	-1.8059	0.0081
							CHANNELS 3 Yrotation Xrotation Zrotation
							JOINT LeftHand
							{
								OFFSET	1.2197	-1.2423	1.6317
								CHANNELS 3 Yrotation Xrotation Zrotation
								JOINT LThumb
								{
									OFFSET	0.0109	-0.0753	0.4387
									CHANNELS 3 Yrotation Xrotation Zrotation
									End Site
									{
										OFFSET -0.2090 -0.0868 0.2097
									}
								}
								JOINT LeftFingerBase
								{
									OFFSET	0.1071	-0.1567	0.2607
									CHANNELS 3 Yrotation Xrotation Zrotation
									JOINT LeftHandFinger1
									{
										OFFSET	0.1706	-0.2492	0.6830
										CHANNELS 3 Yrotation Xrotation Zrotation
										End Site
										{
											OFFSET 0.0335 -0.1507 0.2071
										}
									}
								}
							}
						}
					}
				}
				JOINT Neck
				{
					OFFSET	0.0000	1.7498	0.2381
					CHANNELS 3 Yrotation Xrotation Zrotation
					JOINT Neck1
					{
						OFFSET	0.0000	0.5043	0.1959
						CHANNELS 3 Yrotation Xrotation Zrotation
						JOINT Head
						{
							OFFSET	0.0000	0.5044	0.1959
							CHANNELS 3 Yrotation Xrotation Zrotation
							End Site
							{
								OFFSET 0.0000 1.4798 -0.0693
							}
						}
					}
				}
				JOINT RightShoulder
				{
					OFFSET	-0.2274	1.0382	0.4032
					CHANNELS 3 Yrotation Xrotation Zrotation
					JOINT RightArm
					{
						OFFSET	-1.4730	-0.2267	-0.0231
						CHANNELS 3 Yrotation Xrotation Zrotation
						JOINT RightForeArm
						{
							OFFSET	-1.6131	-1.8059	0.0081
							CHANNELS 3 Yrotation Xrotation Zrotation
							JOINT RightHand
							{
								OFFSET	-1.2197	-1.2423	1.6317
								CHANNELS 3 Yrotation Xrotation Zrotation
								JOINT RThumb
								{
									OFFSET	-0.0109	-0.0753	0.4387
									CHANNELS 3 Yrotation Xrotation Zrotation
									End Site
									{
										OFFSET 0.2090 -0.0868 0.2097
									}
								}
								JOINT RightFingerBase
								{
									OFFSET	-0.1071	-0.1567	0.2607
									CHANNELS 3 Yrotation Xrotation Zrotation
									JOINT RightHandFinger1
									{
										OFFSET	-0.1706	-0.2492	0.6830
										CHANNELS 3 Yrotation Xrotation Zrotation
										End Site
										{
											OFFSET -0.0335 -0.1507 0.2071
										}
									}
								}
							}
						}
					}
				}
			}
		}
	}
	JOINT RHipJoint
	{
		OFFSET	0.0000	0.0000	0.0000
		CHANNELS 3 Yrotation Xrotation Zrotation
		JOINT RightUpLeg
		{
			OFFSET	-1.0138	-0.0809	-0.0827
			CHANNELS 3 Yrotation Xrotation Zrotation
			JOINT RightLeg
			{
				OFFSET	-0.4110	-3.9095	0.3245
				CHANNELS 3 Yrotation Xrotation Zrotation
				JOINT RightFoot
				{
					OFFSET	-0.3810	-4.0555	-0.1470
					CHANNELS 3 Yrotation Xrotation Zrotation
					JOINT RightToeBase
					{
						OFFSET	-0.1396	-0.4462	1.3079
						CHANNELS 3 Yrotation Xrotation Zrotation
						End Site
						{
							OFFSET -0.0161 -0.0248 0.1809
						}
					}
				}
			}
		}
	}
}
MOTION
Frames: 13
Frame Time: 0.0333333
1.0089 11.6773 -0.4083 1.2909 11.9841 -1.6678 0.0000 -0.0000 0.0000 -0.4781 -57.3743 -1.6114 109.1166 74.1898 102.3225 2.5178 16.4520 3.4257 -0.0000 2.4664 0.0000 0.0000 -0.0000 0.0000 0.8263 4.9648 -0.9571 1.6274 9.9451 -1.9677 -8.7778 7.0268 20.2374 44.8035 -11.3629 22.5101 -34.7455 -31.5501 8.4591 5.3910 -22.1586 28.1944 13.4164 -12.0372 25.6660 -2.6162 16.3732 -7.2815 -10.3774 1.1660 -6.1632 -0.4936 -4.4311 -0.5809 -0.4685 -4.4338 -0.5887 -1.0089 -19.0763 -0.9853 -3.0767 6.1519 -3.6690 -25.7832 -8.6001 11.4221 9.1109 -8.8955 1.1729 -3.0884 -15.4462 -27.3421 -11.6958 -15.6975 -21.4993 -6.8856 -3.0807 -6.5804 -3.3655 -14.6917 -4.7604 0.0000 -0.0000 0.0000 -13.1052 -51.2204 9.8145 -130.9207 69.4844 -124.6767 -5.8631 16.9821 0.8705 -0.0000 1.4470 0.0000 
1.0759 11.5669 -0.4680 -0.9530 13.2808 -3.3791 0.0000 -0.0000 0.0000 -1.1859 -51.1888 -0.3148 40.5592 68.1552 34.9342 2.3940 19.6801 5.8440 -0.0000 2.7807 -0.0000 0.0000 -0.0000 0.0000 1.2693 4.8430 -0.2734 2.5409 9.7096 -1.0062 -8.4192 7.0257 18.9659 47.1326 -3.3076 21.7565 -29.0892 -27.5270 5.5803 5.4147 -22.8580 36.7812 12.3301 -14.2401 23.2000 3.8002 4.8847 1.2193 -1.8431 -8.0198 0.7919 -0.2883 -5.1795 -1.0786 -0.2367 -5.1788 -1.0964 -0.4083 -20.0580 -1.3465 -3.2088 6.2010 -4.4292 -23.3227 -3.2202 16.5237 5.8815 -5.3769 1.6393 -5.2887 -15.2755 -31.1960 -11.6897 -15.7127 -21.4813 -6.9086 -3.1584 -6.6307 -3.4133 -14.7567 -4.7955 0.0000 -0.0000 0.0000 -25.6775 -60.2273 23.0669 -156.5687 49.7028 -153.4576 -4.3873 12.2594 -0.7066 -0.0000 1.1526 0.0000 
1.1229 11.3124 -0.4674 -3.8272 14.3906 -5.5049 0.0000 -0.0000 0.0000 -0.6103 -45.0741 1.4910 15.0450 53.0954 10.9343 2.3164 22.3928 6.3069 0.0000 3.3441 -0.0000 0.0000 -0.0000 0.0000 1.7308 4.4015 0.6115 3.5576 8.8163 0.6105 -7.9482 6.8936 18.1549 46.6552 3.8855 17.4190 -21.7044 -21.4052 2.3899 7.6518 -21.9700 40.6712 11.7584 -15.5402 21.7329 6.5340 -2.0901 5.9157 2.7340 -13.8404 4.2936 -0.0743 -5.2281 -1.6765 -0.0155 -5.2223 -1.7004 0.3684 -20.0410 -2.2019 -2.8043 6.2438 -4.1382 -19.6253 0.8318 18.8888 3.2759 -2.4879 1.8711 -9.5105 -23.6553 -35.3919 -11.6797 -15.7371 -21.4524 -6.9314 -3.2622 -6.6966 -3.4748 -14.8402 -4.8407 0.0000 -0.0000 0.0000 -51.7531 -59.7314 51.4415 -161.3819 33.7166 -162.0574 -2.8423 5.6483 -2.8314 -0.0000 0.7931 0.0000 
1.1532 10.9638 -0.4298 -7.4929 14.4800 -7.4695 0.0000 -0.0000 0.0000 2.3362 -37.4739 2.1201 7.0757 35.2609 4.7682 2.7416 27.5858 6.2687 -0.0000 4.4424 0.0000 0.0000 -0.0000 0.0000 1.9844 4.0303 1.3995 4.2097 8.0331 2.4556 -6.5938 6.5174 18.1902 46.1829 9.4972 9.4957 -14.6240 -14.6524 0.0620 13.4452 -19.6852 36.3154 11.6671 -15.7690 21.4148 7.0027 -3.4597 6.8381 3.6001 -15.0119 4.9328 0.2655 -5.0076 -1.9135 0.3161 -4.9937 -1.9448 2.2611 -18.9620 -4.0118 -1.8473 6.3135 -4.2033 -15.3307 2.4311 20.4501 0.8023 0.2768 1.9694 -15.2610 -30.5992 -34.4875 -11.6779 -15.7408 -21.4514 -6.9289 -3.2649 -6.6968 -3.4752 -14.8408 -4.8410 0.0000 -0.0000 0.0000 -67.3404 -51.4740 72.0500 -160.5828 26.9453 -164.3135 -1.2759 0.5115 -5.4136 0.0000 0.3988 0.0000 
1.1944 10.5422 -0.3555 -10.8164 13.4968 -8.6109 0.0000 -0.0000 0.0000 5.8737 -27.2803 1.5739 7.9480 15.0900 4.3795 5.1512 35.5614 7.1869 -0.0000 4.7553 0.0000 0.0000 -0.0000 0.0000 1.8588 3.8367 2.0771 4.0973 7.5955 4.3251 -4.2491 5.9472 19.3383 47.1261 13.3353 -2.1671 -8.5155 -8.2534 -1.2736 21.1219 -15.9315 25.9102 11.7185 -15.6501 21.5124 6.8399 -2.9103 6.4688 3.2608 -14.5498 4.6833 0.6558 -4.5940 -1.7220 0.6877 -4.5730 -1.7643 4.9750 -17.1495 -6.5627 -0.8231 6.5592 -5.7160 -11.2468 0.4146 22.6739 -2.2878 3.7327 1.9244 -22.0192 -30.8009 -28.3864 -11.6932 -15.7033 -21.4955 -6.9215 -3.1459 -6.6297 -3.4120 -14.7549 -4.7946 0.0000 -0.0000 0.0000 -67.6896 -58.4115 75.9741 -163.7016 30.7468 -163.7671 -0.1827 1.0500 -5.5954 -0.0000 0.0000 -0.0000 
1.2489 9.9932 -0.2659 -12.6978 12.4933 -8.8472 0.0000 -0.0000 0.0000 8.3100 -18.7249 0.7611 9.7813 3.5140 3.8503 7.7281 26.7659 3.7758 -0.0000 9.7608 0.0000 0.0000 -0.0000 0.0000 1.4792 3.6686 2.8747 3.2128 7.2562 5.8391 -1.7357 5.3873 21.2002 49.1014 15.4353 -16.3130 -2.8551 -2.0185 -1.8962 28.0467 -13.0450 16.6951 11.6293 -15.8593 21.3163 7.1488 -3.9349 7.1678 3.5634 -15.0564 4.9275 0.9055 -4.2839 -1.3641 0.9135 -4.2615 -1.4167 7.1982 -15.0070 -9.1421 -0.4739 7.0752 -8.3318 -8.3223 -4.8177 25.6237 -6.2071 8.0683 1.6006 -26.3423 -26.3769 -21.7395 -11.7106 -15.6628 -21.5313 -6.9214 -3.0434 -6.5759 -3.3601 -14.6845 -4.7564 0.0000 -0.0000 0.0000 -48.1716 -71.4447 56.8749 -167.0647 41.7336 -161.0410 1.1938 2.1694 -3.8650 0.0000 -0.4065 -0.0000 
1.2850 9.3675 -0.1562 -12.3523 12.1946 -7.3501 0.0000 -0.0000 0.0000 9.1388 -19.3248 -1.1488 9.3492 5.3089 4.3639 13.4135 25.5141 3.7467 1.2487 -19.6911 -7.9031 0.0000 -0.0000 0.0000 0.7734 3.5073 2.9218 1.8976 6.9562 6.3472 -0.1654 5.0697 22.6426 50.3191 16.2219 -29.6578 3.3004 4.8603 -1.8692 33.0065 -13.5152 11.8681 11.5352 -16.0746 21.1534 7.4105 -4.8970 7.8250 3.4890 -15.1447 4.9185 0.9090 -4.6815 -1.1139 0.8936 -4.6674 -1.1667 7.8753 -13.0540 -11.0801 -1.1042 7.6434 -11.0240 -7.0371 -11.2597 29.1040 -10.4420 12.6212 0.9234 -27.4069 -22.0646 -16.1901 -11.6815 -15.7353 -21.4382 -6.9225 -3.2638 -6.6933 -3.4719 -14.8363 -4.8386 0.0000 -0.0000 0.0000 -8.4465 -73.6306 17.0425 -163.6258 55.7536 -154.2528 3.1652 0.9190 -1.3465 -0.0000 -0.8616 0.0000 
1.2805 8.6764 -0.1031 -9.9495 12.2718 -4.8952 0.0000 -0.0000 0.0000 9.2504 -28.8590 -5.1320 13.4787 25.1030 8.8746 12.0290 -6.1929 6.3392 -0.0000 -8.3425 0.0000 0.0000 -0.0000 0.0000 0.2843 3.4626 2.8314 0.6908 6.9091 5.5581 -0.5474 5.1059 22.2805 48.2143 15.3248 -39.8903 10.2937 12.4648 -0.9527 35.3184 -14.4575 7.9906 11.9805 -15.0235 22.2801 5.5785 0.6053 4.1251 1.0096 -11.5747 2.9976 0.6669 -5.9265 -1.0387 0.6362 -5.9273 -1.0773 6.9115 -11.8267 -12.1213 -2.2936 7.9856 -13.0814 -7.0403 -16.5962 32.9480 -14.1965 16.4857 0.0514 -26.8059 -19.2719 -10.6359 -11.6184 -15.8861 -21.2925 -6.9153 -3.6518 -6.9030 -3.5923 -15.0214 -4.9317 0.0000 -0.0000 0.0000 8.5496 -69.2569 -1.8585 -151.7591 68.2406 -141.4284 5.1941 -1.8502 0.9130 0.0000 -1.3919 0.0000 
1.2741 8.0977 -0.1054 -6.0245 12.1574 -1.5346 0.0000 -0.0000 0.0000 9.1892 -36.8563 -8.9053 15.7188 40.9452 12.3952 11.4416 -18.3684 4.2059 0.0000 -7.0988 -0.0000 0.0000 -0.0000 0.0000 0.0692 3.5230 2.1756 0.1691 7.0432 4.0928 -3.3902 5.2712 19.2899 42.7884 11.3851 -46.3018 17.2414 19.4720 0.8323 33.9879 -11.1550 0.2233 13.2905 -12.2818 25.2415 -1.5036 14.7948 -5.9901 -9.0838 -0.0892 -5.0810 0.2132 -7.2186 -1.0529 0.1809 -7.2328 -1.0710 4.9546 -11.5280 -12.4627 -3.3846 8.0680 -14.4889 -7.0802 -19.4975 36.4750 -16.8666 19.1122 -0.7153 -25.2584 -16.0409 -4.3398 -11.7304 -15.6067 -21.6568 -6.9217 -2.8095 -6.4544 -3.2436 -14.5266 -4.6707 0.0000 -0.0000 0.0000 10.5792 -62.3802 -7.2907 -116.8603 78.0600 -107.0684 6.7138 -5.3091 2.3651 -0.0000 -2.0235 -0.0000 
1.2569 7.6945 -0.1350 -2.4621 11.6903 0.9483 0.0000 -0.0000 0.0000 9.0858 -42.6821 -11.7992 19.8229 51.7580 16.5225 10.6841 -22.8783 4.5987 -0.0000 -7.0655 -0.0000 0.0000 -0.0000 0.0000 0.2694 3.4812 1.5880 0.5564 6.9558 3.0073 -7.6788 4.9714 14.2889 37.1461 5.3565 -47.6257 22.3736 24.1614 2.6511 28.9565 -5.0300 -11.2304 14.8525 -9.4924 28.5197 -13.5954 28.5528 -19.0691 -21.8639 10.3433 -16.0730 -0.3162 -7.6555 -1.0990 -0.3396 -7.6750 -1.1045 3.0286 -11.8215 -12.5556 -3.8654 7.9753 -15.6050 -5.6496 -20.2692 38.6901 -18.2665 20.4444 -1.1635 -21.9227 -10.7527 2.0343 -12.3362 -14.2273 -23.2032 -6.8371 1.0875 -4.5105 -1.2803 -11.9246 -3.2031 0.0000 -0.0000 0.0000 7.3407 -53.8611 -5.8524 -52.8184 76.7399 -44.3853 6.9821 -9.0348 2.3996 -0.0000 -3.7914 -0.0000 
1.2096 7.4367 -0.1764 -1.2568 11.4609 1.7483 0.0000 -0.0000 0.0000 9.5740 -46.5500 -12.5241 25.5361 57.6435 21.4162 9.4024 -25.2472 5.3808 0.0000 -6.3182 -0.0000 0.0000 -0.0000 0.0000 0.6476 3.2880 1.3294 1.3564 6.5596 2.7270 -10.9255 4.0863 9.1250 33.2877 -0.0624 -45.3163 24.6354 26.0810 3.5733 22.9463 -3.6056 -20.1354 15.6643 -8.1988 30.1100 -21.5032 34.1231 -26.7690 -28.8314 14.3722 -22.2693 -0.6161 -7.3428 -1.2185 -0.6287 -7.3597 -1.2257 2.2040 -12.1465 -12.7430 -3.1126 7.6956 -16.2184 -2.3776 -20.2571 38.7797 -18.5374 20.6985 -1.2538 -16.2578 -4.7924 6.9473 -13.4887 -11.9003 -25.8046 -6.2690 7.8193 -1.4360 2.1770 -7.6197 -0.5291 0.0000 -0.0000 0.0000 4.7258 -46.8062 -2.1591 -29.8957 69.5572 -22.8625 4.9601 -15.3073 0.7495 -0.6061 -17.8054 4.5176 
1.1463 7.2816 -0.2258 -2.5591 11.7222 1.5398 0.0000 -0.0000 0.0000 10.1929 -49.0495 -11.5543 29.1629 60.7842 24.6746 9.4301 -26.3984 3.2515 -0.0000 -5.5483 0.0000 0.0000 -0.0000 0.0000 0.7674 3.1589 1.3271 1.6304 6.2952 2.8707 -11.6132 3.2777 5.2441 30.7325 -3.8304 -43.1673 24.9980 26.3803 3.7275 18.6551 -10.4123 -20.1339 15.6717 -8.1803 30.0697 -21.4212 34.0978 -26.6993 -28.7729 14.3427 -22.2169 -0.4298 -7.0668 -1.4730 -0.4360 -7.0765 -1.4901 2.9400 -12.1647 -12.9393 -0.4805 7.0972 -15.3148 1.4779 -20.4281 36.3302 -17.8463 20.0479 -1.0258 -9.8900 -0.7443 9.2548 -14.7276 -9.7030 -28.3406 -5.2085 14.4415 1.3631 5.7003 -3.6014 2.2941 0.0000 -0.0000 0.0000 4.2278 -44.4809 0.7107 -26.9607 67.2729 -20.5819 3.2360 -27.3486 -2.5414 0.0000 -12.0025 0.0000 
1.0613 7.2006 -0.2738 -5.2064 11.7002 1.1262 0.0000 -0.0000 0.0000 10.3169 -49.9274 -9.8646 30.1490 62.3306 26.0520 10.9060 -26.7058 -0.6685 -0.0000 -4.8954 -0.0000 0.0000 -0.0000 0.0000 0.3810 3.2203 1.3892 0.8677 6.4280 2.9906 -10.9823 2.8578 2.8351 27.5997 -6.2130 -42.0860 25.1859 26.5344 3.8081 14.8849 -19.6109 -12.7126 15.4991 -8.4460 29.7169 -19.6002 32.9839 -24.9600 -27.2378 13.5429 -20.8432 0.1332 -7.0302 -1.8622 0.1255 -7.0323 -1.8863 4.5294 -11.7416 -12.7569 3.5584 5.9896 -12.6523 4.1150 -20.7758 32.1207 -16.2713 18.5363 -0.5342 -5.2179 1.0451 9.3593 -15.4662 -8.5037 -29.7254 -4.4092 18.1048 2.8613 7.7173 -1.4674 3.9475 0.0000 -0.0000 0.0000 4.5951 -45.1161 2.0769 -26.1361 67.9800 -19.6264 3.2375 -30.3898 -4.8316 -0.0000 -8.0835 -0.0000 
